<?xml version="1.0" encoding="UTF-8" standalone="no"?>
<!-- Created with Inkscape (http://www.inkscape.org/) -->

<svg
   xmlns:dc="http://purl.org/dc/elements/1.1/"
   xmlns:cc="http://creativecommons.org/ns#"
   xmlns:rdf="http://www.w3.org/1999/02/22-rdf-syntax-ns#"
   xmlns:svg="http://www.w3.org/2000/svg"
   xmlns="http://www.w3.org/2000/svg"
   xmlns:sodipodi="http://sodipodi.sourceforge.net/DTD/sodipodi-0.dtd"
   xmlns:inkscape="http://www.inkscape.org/namespaces/inkscape"
   width="60"
   height="90"
   id="svg4081"
   version="1.1"
   inkscape:version="0.48.2 r9819"
   sodipodi:docname="compass.svg">
  <defs
     id="defs4083" />
  <sodipodi:namedview
     id="base"
     pagecolor="#ffffff"
     bordercolor="#666666"
     borderopacity="1.0"
     inkscape:pageopacity="0.0"
     inkscape:pageshadow="2"
     inkscape:zoom="11.313708"
     inkscape:cx="15.902058"
     inkscape:cy="27.227969"
     inkscape:document-units="px"
     inkscape:current-layer="layer1"
     showgrid="true"
     inkscape:window-width="1440"
     inkscape:window-height="779"
     inkscape:window-x="0"
     inkscape:window-y="0"
     inkscape:window-maximized="1"
     inkscape:snap-grids="true"
     inkscape:object-paths="true"
     inkscape:object-nodes="true">
    <inkscape:grid
       type="xygrid"
       id="grid4089"
       empspacing="1"
       visible="true"
       enabled="true"
       snapvisiblegridlinesonly="true" />
  </sodipodi:namedview>
  <metadata
     id="metadata4086">
    <rdf:RDF>
      <cc:Work
         rdf:about="">
        <dc:format>image/svg+xml</dc:format>
        <dc:type
           rdf:resource="http://purl.org/dc/dcmitype/StillImage" />
        <dc:title />
      </cc:Work>
    </rdf:RDF>
  </metadata>
  <g
     inkscape:label="Layer 1"
     inkscape:groupmode="layer"
     id="layer1"
     transform="translate(0,-962.36218)">
    <g
       id="g3312"
       style="fill:#808080;fill-opacity:1">
      <path
         id="path3833"
         d="m 30,972.36216 c -13.807118,0 -25,11.19288 -25,25 0,13.80714 11.192882,25.00004 25,25.00004 13.807118,0 25,-11.1929 25,-25.00004 0,-13.80712 -11.192882,-25 -25,-25 z m 0,2 c 2.053679,0 4.042906,0.27628 5.9375,0.78125 C 45.761474,977.76182 53,986.7133 53,997.36216 c 0,12.70254 -10.297451,23.00004 -23,23.00004 -2.053679,0 -4.042906,-0.2763 -5.9375,-0.7813 C 14.238526,1016.9625 7,1008.011 7,997.36216 c 0,-12.70254 10.297451,-23 23,-23 z m 5.4375,2.71875 -11.21875,18.71875 0.34375,21.84374 11.21875,-18.71874 -0.34375,-21.84375 z M 30.25,993.36216 c 0.265309,0.0159 0.514517,0.0535 0.78125,0.125 2.133865,0.57176 3.415518,2.77238 2.84375,4.90625 -0.571767,2.13389 -2.772386,3.41549 -4.90625,2.84379 -2.133865,-0.5718 -3.415518,-2.77242 -2.84375,-4.90629 0.500296,-1.86713 2.26784,-3.08023 4.125,-2.96875 z"
         style="fill:#808080;fill-opacity:1;stroke:none"
         inkscape:connector-curvature="0" />
      <text
         sodipodi:linespacing="125%"
         id="text4615"
         y="1045.3822"
         x="9.7200003"
         style="font-size:20px;font-style:normal;font-variant:normal;font-weight:normal;font-stretch:normal;line-height:125%;letter-spacing:0px;word-spacing:0px;fill:#808080;fill-opacity:1;stroke:none;font-family:STHeiti;-inkscape-font-specification:STHeiti"
         xml:space="preserve"><tspan
           y="1045.3822"
           x="9.7200003"
           id="tspan4617"
           sodipodi:role="line">导航</tspan></text>
    </g>
  </g>
</svg>
