<?xml version="1.0" encoding="UTF-8" standalone="no"?>
<!-- Created with Inkscape (http://www.inkscape.org/) -->

<svg
   xmlns:dc="http://purl.org/dc/elements/1.1/"
   xmlns:cc="http://creativecommons.org/ns#"
   xmlns:rdf="http://www.w3.org/1999/02/22-rdf-syntax-ns#"
   xmlns:svg="http://www.w3.org/2000/svg"
   xmlns="http://www.w3.org/2000/svg"
   xmlns:sodipodi="http://sodipodi.sourceforge.net/DTD/sodipodi-0.dtd"
   xmlns:inkscape="http://www.inkscape.org/namespaces/inkscape"
   width="60"
   height="90"
   id="svg2"
   version="1.1"
   inkscape:version="0.48.2 r9819"
   sodipodi:docname="here.svg">
  <defs
     id="defs4" />
  <sodipodi:namedview
     id="base"
     pagecolor="#ffffff"
     bordercolor="#666666"
     borderopacity="1.0"
     inkscape:pageopacity="0.0"
     inkscape:pageshadow="2"
     inkscape:zoom="5.12"
     inkscape:cx="-11.093966"
     inkscape:cy="36.591249"
     inkscape:document-units="px"
     inkscape:current-layer="g3982"
     showgrid="true"
     inkscape:window-width="1292"
     inkscape:window-height="820"
     inkscape:window-x="0"
     inkscape:window-y="0"
     inkscape:window-maximized="0">
    <inkscape:grid
       type="xygrid"
       id="grid2985"
       empspacing="1"
       visible="true"
       enabled="true"
       snapvisiblegridlinesonly="true" />
  </sodipodi:namedview>
  <metadata
     id="metadata7">
    <rdf:RDF>
      <cc:Work
         rdf:about="">
        <dc:format>image/svg+xml</dc:format>
        <dc:type
           rdf:resource="http://purl.org/dc/dcmitype/StillImage" />
        <dc:title />
      </cc:Work>
    </rdf:RDF>
  </metadata>
  <g
     inkscape:label="Layer 1"
     inkscape:groupmode="layer"
     id="layer1"
     transform="translate(0,-962.36218)">
    <g
       id="g3982"
       transform="translate(0,-4.9999782)"
       style="fill:#757270;fill-opacity:1">
      <g
         id="g3296"
         style="fill:#808080;fill-opacity:1">
        <path
           style="fill:#808080;fill-opacity:1;fill-rule:evenodd;stroke:none"
           d="m 44.142136,984.93564 c -7.810486,-7.81048 -20.473782,-7.81048 -28.284272,0 -7.8104888,7.8105 -7.8104853,20.47376 0,28.28436 L 30,1027.3622 44.142136,1013.22 c 7.810489,-7.8106 7.810485,-20.47386 0,-28.28436 z m -1.414214,1.4143 c 7.029437,7.0294 7.029419,18.42636 0,25.45586 L 30,1024.5337 17.272078,1011.8058 c -7.029437,-7.0295 -7.029419,-18.42646 0,-25.45586 7.029419,-7.02958 18.426407,-7.02958 25.455844,0 z m -7.778175,7.7781 c -2.73367,-2.7336 -7.16582,-2.7336 -9.899494,0 -2.733675,2.7337 -2.733671,7.16586 0,9.89946 2.73367,2.7337 7.16582,2.7337 9.899494,0 2.733675,-2.7336 2.733671,-7.16576 0,-9.89946 z m -1.414213,1.4142 c 1.952622,1.9527 1.952605,5.11846 0,7.07106 -1.952605,1.9526 -5.118446,1.9526 -7.071068,0 -1.952622,-1.9526 -1.952605,-5.11836 0,-7.07106 1.952605,-1.9526 5.118446,-1.9526 7.071068,0 z"
           id="path3781"
           inkscape:connector-curvature="0" />
        <text
           xml:space="preserve"
           style="font-size:16px;font-style:normal;font-weight:normal;line-height:125%;letter-spacing:0px;word-spacing:0px;fill:#808080;fill-opacity:1;stroke:none;font-family:Sans"
           x="9.7799997"
           y="1050.8622"
           id="text3916"
           sodipodi:linespacing="125%"><tspan
             sodipodi:role="line"
             id="tspan3918"
             x="9.7799997"
             y="1050.8622"
             style="font-size:20px;font-style:normal;font-variant:normal;font-weight:normal;font-stretch:normal;fill:#808080;fill-opacity:1;font-family:STHeiti;-inkscape-font-specification:STHeiti">这里</tspan></text>
      </g>
    </g>
  </g>
</svg>
