<?xml version="1.0" encoding="UTF-8" standalone="no"?>
<!-- Created with Inkscape (http://www.inkscape.org/) -->

<svg
   xmlns:dc="http://purl.org/dc/elements/1.1/"
   xmlns:cc="http://creativecommons.org/ns#"
   xmlns:rdf="http://www.w3.org/1999/02/22-rdf-syntax-ns#"
   xmlns:svg="http://www.w3.org/2000/svg"
   xmlns="http://www.w3.org/2000/svg"
   xmlns:sodipodi="http://sodipodi.sourceforge.net/DTD/sodipodi-0.dtd"
   xmlns:inkscape="http://www.inkscape.org/namespaces/inkscape"
   width="60"
   height="90"
   id="svg3846"
   version="1.1"
   inkscape:version="0.48.2 r9819"
   sodipodi:docname="home.svg">
  <defs
     id="defs3848" />
  <sodipodi:namedview
     id="base"
     pagecolor="#ffffff"
     bordercolor="#666666"
     borderopacity="1.0"
     inkscape:pageopacity="0.0"
     inkscape:pageshadow="2"
     inkscape:zoom="7.9195959"
     inkscape:cx="2.6926095"
     inkscape:cy="24.24563"
     inkscape:document-units="px"
     inkscape:current-layer="layer1"
     showgrid="true"
     units="px"
     inkscape:window-width="1211"
     inkscape:window-height="785"
     inkscape:window-x="53"
     inkscape:window-y="0"
     inkscape:window-maximized="0"
     inkscape:snap-grids="false"
     inkscape:object-paths="true"
     inkscape:object-nodes="true">
    <inkscape:grid
       type="xygrid"
       id="grid3862"
       empspacing="1"
       visible="true"
       enabled="true"
       snapvisiblegridlinesonly="true"
       units="px" />
  </sodipodi:namedview>
  <metadata
     id="metadata3851">
    <rdf:RDF>
      <cc:Work
         rdf:about="">
        <dc:format>image/svg+xml</dc:format>
        <dc:type
           rdf:resource="http://purl.org/dc/dcmitype/StillImage" />
        <dc:title />
      </cc:Work>
    </rdf:RDF>
  </metadata>
  <g
     inkscape:label="Layer 1"
     inkscape:groupmode="layer"
     id="layer1"
     transform="translate(0,-962.3622)">
    <g
       id="g3286"
       style="fill:#808080;fill-opacity:1">
      <path
         id="rect4394"
         d="m 30,972.51845 -10,10 0,-4.15625 -6,0 -2,0 0,2 0,10.1875 -6.90625,6.90625 1.40625,1.40625 23.5,-23.5 23.5,23.5 1.40625,-1.40625 L 30,972.51845 z m -16,7.84375 4,0 0,4.15625 -4,4.03125 0,-8.1875 z m 16,0.15625 -18,18.03125 0,0.3125 0,2.5 0,21 2,0 12,0 0,-2 0,-12 8,0 0,14 2,0 10,0 2,0 0,-21 0,-2.5 0,-0.3125 -18,-18.03125 z m 0,2.84375 16,16 0,21 -10,0 0,-12 0,-2 -12,0 0,2 0,12 -10,0 0,-21 8.59375,-8.59375 L 30,983.3622 z"
         style="fill:#808080;fill-opacity:1;fill-rule:evenodd;stroke:none"
         inkscape:connector-curvature="0" />
      <text
         sodipodi:linespacing="125%"
         id="text4528"
         y="1045.0422"
         x="10.07"
         style="font-size:16px;font-style:normal;font-weight:normal;line-height:125%;letter-spacing:0px;word-spacing:0px;fill:#808080;fill-opacity:1;stroke:none;font-family:Sans"
         xml:space="preserve"><tspan
           style="font-size:20px;font-style:normal;font-variant:normal;font-weight:normal;font-stretch:normal;fill:#808080;fill-opacity:1;font-family:STHeiti;-inkscape-font-specification:STHeiti"
           y="1045.0422"
           x="10.07"
           id="tspan4530"
           sodipodi:role="line">首页</tspan></text>
    </g>
  </g>
</svg>
