<?xml version="1.0" encoding="UTF-8" standalone="no"?>
<!-- Created with Inkscape (http://www.inkscape.org/) -->

<svg
   xmlns:dc="http://purl.org/dc/elements/1.1/"
   xmlns:cc="http://creativecommons.org/ns#"
   xmlns:rdf="http://www.w3.org/1999/02/22-rdf-syntax-ns#"
   xmlns:svg="http://www.w3.org/2000/svg"
   xmlns="http://www.w3.org/2000/svg"
   xmlns:sodipodi="http://sodipodi.sourceforge.net/DTD/sodipodi-0.dtd"
   xmlns:inkscape="http://www.inkscape.org/namespaces/inkscape"
   width="60"
   height="90"
   id="svg2"
   version="1.1"
   inkscape:version="0.48.2 r9819"
   sodipodi:docname="surround.svg">
  <defs
     id="defs4" />
  <sodipodi:namedview
     id="base"
     pagecolor="#ffffff"
     bordercolor="#666666"
     borderopacity="1.0"
     inkscape:pageopacity="0.0"
     inkscape:pageshadow="2"
     inkscape:zoom="2.8"
     inkscape:cx="-46.47708"
     inkscape:cy="69.999999"
     inkscape:document-units="px"
     inkscape:current-layer="layer1"
     showgrid="true"
     inkscape:window-width="1099"
     inkscape:window-height="705"
     inkscape:window-x="0"
     inkscape:window-y="0"
     inkscape:window-maximized="0">
    <inkscape:grid
       type="xygrid"
       id="grid2985"
       empspacing="5"
       visible="true"
       enabled="true"
       snapvisiblegridlinesonly="true" />
  </sodipodi:namedview>
  <metadata
     id="metadata7">
    <rdf:RDF>
      <cc:Work
         rdf:about="">
        <dc:format>image/svg+xml</dc:format>
        <dc:type
           rdf:resource="http://purl.org/dc/dcmitype/StillImage" />
        <dc:title />
      </cc:Work>
    </rdf:RDF>
  </metadata>
  <g
     inkscape:label="Layer 1"
     inkscape:groupmode="layer"
     id="layer1"
     transform="translate(0,-962.36218)">
    <g
       id="g3209"
       style="fill:#808080;fill-opacity:1">
      <path
         id="path2987"
         d="m 30,972.36216 c -13.807119,0 -25,11.19288 -25,25 0,13.80714 11.192881,25.00004 25,25.00004 13.807119,0 25,-11.1929 25,-25.00004 0,-13.80712 -11.192881,-25 -25,-25 z m 0,2 c 12.702549,0 23,10.29745 23,23 0,12.70254 -10.297451,23.00004 -23,23.00004 -12.702549,0 -23,-10.2975 -23,-23.00004 0,-12.70255 10.297451,-23 23,-23 z m -12.71875,10.28125 c -7.029437,7.02943 -7.029437,18.40809 0,25.43749 l 1.40625,-1.4062 c -6.248389,-6.2484 -6.248389,-16.37665 0,-22.62504 l -1.40625,-1.40625 z m 25.4375,0 -1.40625,1.40625 c 6.248389,6.24839 6.248389,16.37664 0,22.62504 l 1.40625,1.4062 c 7.029437,-7.0294 7.029437,-18.40806 0,-25.43749 z m -20.5,4.9375 c -4.295767,4.29576 -4.295767,11.26679 0,15.56249 l 1.40625,-1.4062 c -3.514719,-3.5148 -3.514719,-9.23532 0,-12.75004 l -1.40625,-1.40625 z m 15.5625,0 -1.40625,1.40625 c 3.514719,3.51472 3.514719,9.23524 0,12.75004 l 1.40625,1.4062 c 4.295767,-4.2957 4.295767,-11.26673 0,-15.56249 z M 30,993.36216 c -2.209139,0 -4,1.79086 -4,4 0,2.20914 1.790861,4.00004 4,4.00004 2.209139,0 4,-1.7909 4,-4.00004 0,-2.20914 -1.790861,-4 -4,-4 z"
         style="fill:#808080;fill-opacity:1;fill-rule:evenodd;stroke:none"
         inkscape:connector-curvature="0" />
      <text
         sodipodi:linespacing="125%"
         id="text3916"
         y="1045.4622"
         x="9.7799997"
         style="font-size:16px;font-style:normal;font-weight:normal;line-height:125%;letter-spacing:0px;word-spacing:0px;fill:#808080;fill-opacity:1;stroke:none;font-family:Sans"
         xml:space="preserve"><tspan
           style="font-size:20px;font-style:normal;font-variant:normal;font-weight:normal;font-stretch:normal;fill:#808080;fill-opacity:1;font-family:STHeiti;-inkscape-font-specification:STHeiti"
           y="1045.4622"
           x="9.7799997"
           id="tspan3918"
           sodipodi:role="line">周边</tspan></text>
    </g>
  </g>
</svg>
